<svg id="visual" viewBox="0 0 1920 1080" width="1920" height="1080" xmlns="http://www.w3.org/2000/svg" xmlns:xlink="http://www.w3.org/1999/xlink" version="1.1"><rect x="0" y="0" width="1920" height="1080" fill="#B2afc8"></rect><defs><linearGradient id="grad1_0" x1="43.8%" y1="0%" x2="100%" y2="100%"><stop offset="14.444444444444446%" stop-color="#b2afc8" stop-opacity="1"></stop><stop offset="85.55555555555554%" stop-color="#b2afc8" stop-opacity="1"></stop></linearGradient></defs><defs><linearGradient id="grad2_0" x1="0%" y1="0%" x2="56.3%" y2="100%"><stop offset="14.444444444444446%" stop-color="#b2afc8" stop-opacity="1"></stop><stop offset="85.55555555555554%" stop-color="#b2afc8" stop-opacity="1"></stop></linearGradient></defs><g transform="translate(1920, 0)"><path d="M0 486C-86.4 474.1 -172.7 462.1 -243 420.9C-313.3 379.6 -367.5 309 -405.3 234C-443.1 159 -464.6 79.5 -486 0L0 0Z" fill="#Efad50"></path></g><g transform="translate(0, 1080)"><path d="M0 -486C78.1 -462.3 156.3 -438.5 231.5 -401C306.7 -363.4 379 -312.1 420.9 -243C462.8 -173.9 474.4 -86.9 486 0L0 0Z" fill="#Efad50"></path></g></svg>